<svg xmlns="http://www.w3.org/2000/svg" xmlns:xlink="http://www.w3.org/1999/xlink" width="500" zoomAndPan="magnify" viewBox="0 0 375 374.999991" height="500" preserveAspectRatio="xMidYMid meet" version="1.0"><defs><g/><clipPath id="b74460a13d"><path d="M 157 104.683594 L 218 104.683594 L 218 126 L 157 126 Z M 157 104.683594 " clip-rule="nonzero"/></clipPath><clipPath id="beb16859f7"><path d="M 217 125 L 238.15625 125 L 238.15625 157 L 217 157 Z M 217 125 " clip-rule="nonzero"/></clipPath><clipPath id="df77bc3120"><path d="M 157 170 L 218 170 L 218 190.933594 L 157 190.933594 Z M 157 170 " clip-rule="nonzero"/></clipPath><clipPath id="6cc8b1f811"><path d="M 136.90625 139 L 158 139 L 158 171 L 136.90625 171 Z M 136.90625 139 " clip-rule="nonzero"/></clipPath><clipPath id="7f5fc1d06a"><path d="M 113.574219 250.066406 L 261.324219 250.066406 L 261.324219 270.316406 L 113.574219 270.316406 Z M 113.574219 250.066406 " clip-rule="nonzero"/></clipPath><clipPath id="ce772b5e84"><path d="M 123.699219 250.066406 L 251.292969 250.066406 C 253.980469 250.066406 256.554688 251.132812 258.453125 253.03125 C 260.351562 254.929688 261.417969 257.503906 261.417969 260.191406 C 261.417969 262.875 260.351562 265.449219 258.453125 267.351562 C 256.554688 269.25 253.980469 270.316406 251.292969 270.316406 L 123.699219 270.316406 C 121.011719 270.316406 118.4375 269.25 116.539062 267.351562 C 114.640625 265.449219 113.574219 262.875 113.574219 260.191406 C 113.574219 257.503906 114.640625 254.929688 116.539062 253.03125 C 118.4375 251.132812 121.011719 250.066406 123.699219 250.066406 Z M 123.699219 250.066406 " clip-rule="nonzero"/></clipPath><clipPath id="adaa5b3aa2"><path d="M 86.363281 157.269531 L 123.113281 157.269531 L 123.113281 194.019531 L 86.363281 194.019531 Z M 86.363281 157.269531 " clip-rule="nonzero"/></clipPath><clipPath id="8379ad7617"><path d="M 104.878906 157.269531 C 94.652344 157.269531 86.363281 165.558594 86.363281 175.785156 C 86.363281 186.011719 94.652344 194.300781 104.878906 194.300781 C 115.105469 194.300781 123.394531 186.011719 123.394531 175.785156 C 123.394531 165.558594 115.105469 157.269531 104.878906 157.269531 Z M 104.878906 157.269531 " clip-rule="nonzero"/></clipPath><clipPath id="cd9f32777c"><path d="M 251.59375 157.269531 L 288.34375 157.269531 L 288.34375 194.019531 L 251.59375 194.019531 Z M 251.59375 157.269531 " clip-rule="nonzero"/></clipPath><clipPath id="2407c97818"><path d="M 270.109375 157.269531 C 259.882812 157.269531 251.59375 165.558594 251.59375 175.785156 C 251.59375 186.011719 259.882812 194.300781 270.109375 194.300781 C 280.335938 194.300781 288.625 186.011719 288.625 175.785156 C 288.625 165.558594 280.335938 157.269531 270.109375 157.269531 Z M 270.109375 157.269531 " clip-rule="nonzero"/></clipPath></defs><rect x="-37.5" width="450" fill="#ffffff" y="-37.499999" height="449.999989" fill-opacity="1"/><rect x="-37.5" width="450" fill="#ffffff" y="-37.499999" height="449.999989" fill-opacity="1"/><g clip-path="url(#b74460a13d)"><path fill="#2e2e2e" d="M 217.441406 125.230469 L 174.660156 125.230469 C 165.210938 125.230469 157.550781 117.570312 157.550781 108.121094 L 157.550781 104.652344 L 200.332031 104.652344 C 209.78125 104.652344 217.441406 112.316406 217.441406 121.765625 Z M 217.441406 125.230469 " fill-opacity="1" fill-rule="nonzero"/></g><g clip-path="url(#beb16859f7)"><path fill="#2e2e2e" d="M 238.027344 142.351562 L 238.027344 156.226562 L 234.5625 156.226562 C 225.113281 156.226562 217.449219 148.566406 217.449219 139.117188 L 217.449219 125.230469 L 220.917969 125.230469 C 230.367188 125.230469 238.027344 132.902344 238.027344 142.351562 Z M 238.027344 142.351562 " fill-opacity="1" fill-rule="nonzero"/></g><g clip-path="url(#df77bc3120)"><path fill="#2e2e2e" d="M 157.550781 170.042969 L 200.332031 170.042969 C 209.78125 170.042969 217.441406 177.703125 217.441406 187.152344 L 217.441406 190.617188 L 174.660156 190.617188 C 165.210938 190.617188 157.550781 182.957031 157.550781 173.507812 Z M 157.550781 170.042969 " fill-opacity="1" fill-rule="nonzero"/></g><g clip-path="url(#6cc8b1f811)"><path fill="#2e2e2e" d="M 136.964844 152.921875 L 136.964844 139.046875 L 140.429688 139.046875 C 149.878906 139.046875 157.542969 146.707031 157.542969 156.15625 L 157.542969 170.03125 L 154.074219 170.03125 C 144.625 170.042969 136.964844 162.371094 136.964844 152.921875 Z M 136.964844 152.921875 " fill-opacity="1" fill-rule="nonzero"/></g><path fill="#2e2e2e" d="M 200.90625 147.636719 C 200.90625 148.515625 200.820312 149.386719 200.648438 150.253906 C 200.476562 151.117188 200.222656 151.953125 199.886719 152.769531 C 199.550781 153.582031 199.136719 154.355469 198.648438 155.085938 C 198.15625 155.820312 197.601562 156.496094 196.980469 157.117188 C 196.355469 157.742188 195.679688 158.296875 194.945312 158.785156 C 194.214844 159.277344 193.441406 159.6875 192.628906 160.027344 C 191.816406 160.363281 190.976562 160.617188 190.113281 160.789062 C 189.25 160.960938 188.375 161.046875 187.496094 161.046875 C 186.617188 161.046875 185.742188 160.960938 184.878906 160.789062 C 184.015625 160.617188 183.175781 160.363281 182.363281 160.027344 C 181.550781 159.6875 180.777344 159.277344 180.046875 158.785156 C 179.3125 158.296875 178.636719 157.742188 178.011719 157.117188 C 177.390625 156.496094 176.835938 155.820312 176.34375 155.085938 C 175.855469 154.355469 175.441406 153.582031 175.105469 152.769531 C 174.769531 151.953125 174.515625 151.117188 174.34375 150.253906 C 174.171875 149.386719 174.085938 148.515625 174.085938 147.636719 C 174.085938 146.753906 174.171875 145.882812 174.34375 145.019531 C 174.515625 144.15625 174.769531 143.316406 175.105469 142.503906 C 175.441406 141.691406 175.855469 140.917969 176.34375 140.183594 C 176.835938 139.453125 177.390625 138.777344 178.011719 138.152344 C 178.636719 137.53125 179.3125 136.972656 180.046875 136.484375 C 180.777344 135.996094 181.550781 135.582031 182.363281 135.246094 C 183.175781 134.910156 184.015625 134.65625 184.878906 134.484375 C 185.742188 134.3125 186.617188 134.226562 187.496094 134.226562 C 188.375 134.226562 189.25 134.3125 190.113281 134.484375 C 190.976562 134.65625 191.816406 134.910156 192.628906 135.246094 C 193.441406 135.582031 194.214844 135.996094 194.945312 136.484375 C 195.679688 136.972656 196.355469 137.53125 196.980469 138.152344 C 197.601562 138.777344 198.15625 139.453125 198.648438 140.183594 C 199.136719 140.917969 199.550781 141.691406 199.886719 142.503906 C 200.222656 143.316406 200.476562 144.15625 200.648438 145.019531 C 200.820312 145.882812 200.90625 146.753906 200.90625 147.636719 Z M 200.90625 147.636719 " fill-opacity="1" fill-rule="nonzero"/><g clip-path="url(#7f5fc1d06a)"><g clip-path="url(#ce772b5e84)"><path stroke-linecap="butt" transform="matrix(0.75, 0, 0, 0.75, 113.574093, 250.066097)" fill="none" stroke-linejoin="miter" d="M 13.500169 0.000412095 L 183.625191 0.000412095 C 187.208525 0.000412095 190.640817 1.422287 193.172068 3.953538 C 195.703318 6.484788 197.125193 9.91708 197.125193 13.500414 C 197.125193 17.078539 195.703318 20.510831 193.172068 23.04729 C 190.640817 25.57854 187.208525 27.000416 183.625191 27.000416 L 13.500169 27.000416 C 9.916836 27.000416 6.484543 25.57854 3.953293 23.04729 C 1.422043 20.510831 0.000167611 17.078539 0.000167611 13.500414 C 0.000167611 9.91708 1.422043 6.484788 3.953293 3.953538 C 6.484543 1.422287 9.916836 0.000412095 13.500169 0.000412095 Z M 13.500169 0.000412095 " stroke="#2e2e2e" stroke-width="2" stroke-opacity="1" stroke-miterlimit="4"/></g></g><g fill="#2e2e2e" fill-opacity="1"><g transform="translate(136.173313, 263.565539)"><g><path d="M 3.59375 -6.4375 C 4.082031 -6.375 4.476562 -6.191406 4.78125 -5.890625 C 5.082031 -5.597656 5.234375 -5.175781 5.234375 -4.625 C 5.234375 -4.257812 5.160156 -3.945312 5.015625 -3.6875 C 4.867188 -3.425781 4.671875 -3.21875 4.421875 -3.0625 C 4.179688 -2.914062 3.90625 -2.820312 3.59375 -2.78125 C 3.445312 -2.757812 3.304688 -2.742188 3.171875 -2.734375 C 3.035156 -2.734375 2.882812 -2.734375 2.71875 -2.734375 L 1.515625 -2.734375 L 1.515625 0 L 0.921875 0 L 0.921875 -6.484375 L 2.71875 -6.484375 C 2.882812 -6.484375 3.035156 -6.476562 3.171875 -6.46875 C 3.304688 -6.46875 3.445312 -6.457031 3.59375 -6.4375 Z M 3.546875 -3.28125 C 3.835938 -3.332031 4.085938 -3.460938 4.296875 -3.671875 C 4.503906 -3.878906 4.609375 -4.195312 4.609375 -4.625 C 4.609375 -5.039062 4.503906 -5.351562 4.296875 -5.5625 C 4.085938 -5.769531 3.835938 -5.894531 3.546875 -5.9375 C 3.441406 -5.957031 3.320312 -5.96875 3.1875 -5.96875 C 3.0625 -5.976562 2.921875 -5.984375 2.765625 -5.984375 L 1.515625 -5.984375 L 1.515625 -3.234375 L 2.765625 -3.234375 C 2.921875 -3.234375 3.0625 -3.238281 3.1875 -3.25 C 3.320312 -3.257812 3.441406 -3.269531 3.546875 -3.28125 Z M 3.546875 -3.28125 "/></g></g></g><g fill="#2e2e2e" fill-opacity="1"><g transform="translate(145.111202, 263.565539)"><g><path d="M 5.890625 -6.484375 L 5.890625 0 L 5.3125 0 L 5.3125 -2.9375 L 1.515625 -2.9375 L 1.515625 0 L 0.921875 0 L 0.921875 -6.484375 L 1.515625 -6.484375 L 1.515625 -3.421875 L 5.3125 -3.421875 L 5.3125 -6.484375 Z M 5.890625 -6.484375 "/></g></g></g><g fill="#2e2e2e" fill-opacity="1"><g transform="translate(155.297528, 263.565539)"><g><path d="M 3.46875 -6.609375 C 4.09375 -6.609375 4.628906 -6.460938 5.078125 -6.171875 C 5.535156 -5.890625 5.882812 -5.492188 6.125 -4.984375 C 6.363281 -4.472656 6.484375 -3.890625 6.484375 -3.234375 C 6.484375 -2.585938 6.363281 -2.007812 6.125 -1.5 C 5.882812 -0.988281 5.535156 -0.585938 5.078125 -0.296875 C 4.628906 -0.015625 4.09375 0.125 3.46875 0.125 C 2.84375 0.125 2.300781 -0.015625 1.84375 -0.296875 C 1.394531 -0.585938 1.050781 -0.988281 0.8125 -1.5 C 0.570312 -2.007812 0.453125 -2.585938 0.453125 -3.234375 C 0.453125 -3.890625 0.570312 -4.472656 0.8125 -4.984375 C 1.050781 -5.492188 1.394531 -5.890625 1.84375 -6.171875 C 2.300781 -6.460938 2.84375 -6.609375 3.46875 -6.609375 Z M 3.46875 -0.34375 C 3.9375 -0.34375 4.347656 -0.457031 4.703125 -0.6875 C 5.054688 -0.914062 5.332031 -1.25 5.53125 -1.6875 C 5.726562 -2.125 5.828125 -2.640625 5.828125 -3.234375 C 5.828125 -3.847656 5.726562 -4.367188 5.53125 -4.796875 C 5.332031 -5.234375 5.054688 -5.566406 4.703125 -5.796875 C 4.347656 -6.023438 3.9375 -6.140625 3.46875 -6.140625 C 3 -6.140625 2.585938 -6.023438 2.234375 -5.796875 C 1.878906 -5.566406 1.601562 -5.234375 1.40625 -4.796875 C 1.207031 -4.367188 1.109375 -3.847656 1.109375 -3.234375 C 1.109375 -2.640625 1.207031 -2.125 1.40625 -1.6875 C 1.601562 -1.25 1.878906 -0.914062 2.234375 -0.6875 C 2.585938 -0.457031 3 -0.34375 3.46875 -0.34375 Z M 3.46875 -0.34375 "/></g></g></g><g fill="#2e2e2e" fill-opacity="1"><g transform="translate(165.727898, 263.565539)"><g><path d="M 5.640625 -6 L 3.265625 -6 L 3.265625 0 L 2.6875 0 L 2.6875 -6 L 0.3125 -6 L 0.3125 -6.484375 L 5.640625 -6.484375 Z M 5.640625 -6 "/></g></g></g><g fill="#2e2e2e" fill-opacity="1"><g transform="translate(174.956777, 263.565539)"><g><path d="M 3.46875 -6.609375 C 4.09375 -6.609375 4.628906 -6.460938 5.078125 -6.171875 C 5.535156 -5.890625 5.882812 -5.492188 6.125 -4.984375 C 6.363281 -4.472656 6.484375 -3.890625 6.484375 -3.234375 C 6.484375 -2.585938 6.363281 -2.007812 6.125 -1.5 C 5.882812 -0.988281 5.535156 -0.585938 5.078125 -0.296875 C 4.628906 -0.015625 4.09375 0.125 3.46875 0.125 C 2.84375 0.125 2.300781 -0.015625 1.84375 -0.296875 C 1.394531 -0.585938 1.050781 -0.988281 0.8125 -1.5 C 0.570312 -2.007812 0.453125 -2.585938 0.453125 -3.234375 C 0.453125 -3.890625 0.570312 -4.472656 0.8125 -4.984375 C 1.050781 -5.492188 1.394531 -5.890625 1.84375 -6.171875 C 2.300781 -6.460938 2.84375 -6.609375 3.46875 -6.609375 Z M 3.46875 -0.34375 C 3.9375 -0.34375 4.347656 -0.457031 4.703125 -0.6875 C 5.054688 -0.914062 5.332031 -1.25 5.53125 -1.6875 C 5.726562 -2.125 5.828125 -2.640625 5.828125 -3.234375 C 5.828125 -3.847656 5.726562 -4.367188 5.53125 -4.796875 C 5.332031 -5.234375 5.054688 -5.566406 4.703125 -5.796875 C 4.347656 -6.023438 3.9375 -6.140625 3.46875 -6.140625 C 3 -6.140625 2.585938 -6.023438 2.234375 -5.796875 C 1.878906 -5.566406 1.601562 -5.234375 1.40625 -4.796875 C 1.207031 -4.367188 1.109375 -3.847656 1.109375 -3.234375 C 1.109375 -2.640625 1.207031 -2.125 1.40625 -1.6875 C 1.601562 -1.25 1.878906 -0.914062 2.234375 -0.6875 C 2.585938 -0.457031 3 -0.34375 3.46875 -0.34375 Z M 3.46875 -0.34375 "/></g></g></g><g fill="#2e2e2e" fill-opacity="1"><g transform="translate(185.38715, 263.565539)"><g><path d="M 3.6875 -3.03125 L 6.03125 -3.03125 L 6.03125 0 L 5.5 0 L 5.5 -1.328125 L 5.25 -0.75 C 5.039062 -0.445312 4.769531 -0.222656 4.4375 -0.078125 C 4.101562 0.0546875 3.742188 0.125 3.359375 0.125 C 2.753906 0.125 2.238281 -0.015625 1.8125 -0.296875 C 1.382812 -0.578125 1.050781 -0.96875 0.8125 -1.46875 C 0.570312 -1.96875 0.453125 -2.550781 0.453125 -3.21875 C 0.453125 -3.875 0.582031 -4.457031 0.84375 -4.96875 C 1.101562 -5.476562 1.460938 -5.878906 1.921875 -6.171875 C 2.378906 -6.460938 2.90625 -6.609375 3.5 -6.609375 C 4.019531 -6.609375 4.457031 -6.515625 4.8125 -6.328125 C 5.175781 -6.140625 5.460938 -5.882812 5.671875 -5.5625 C 5.878906 -5.238281 6.015625 -4.867188 6.078125 -4.453125 L 6.078125 -4.359375 L 5.5 -4.359375 L 5.484375 -4.453125 C 5.378906 -4.953125 5.160156 -5.359375 4.828125 -5.671875 C 4.503906 -5.984375 4.054688 -6.140625 3.484375 -6.140625 C 3.035156 -6.140625 2.628906 -6.019531 2.265625 -5.78125 C 1.910156 -5.539062 1.628906 -5.203125 1.421875 -4.765625 C 1.210938 -4.335938 1.109375 -3.828125 1.109375 -3.234375 C 1.109375 -2.640625 1.207031 -2.125 1.40625 -1.6875 C 1.601562 -1.257812 1.875 -0.925781 2.21875 -0.6875 C 2.5625 -0.457031 2.953125 -0.34375 3.390625 -0.34375 C 3.734375 -0.34375 4.0625 -0.421875 4.375 -0.578125 C 4.6875 -0.742188 4.941406 -0.992188 5.140625 -1.328125 C 5.347656 -1.660156 5.453125 -2.066406 5.453125 -2.546875 L 3.6875 -2.546875 Z M 3.6875 -3.03125 "/></g></g></g><g fill="#2e2e2e" fill-opacity="1"><g transform="translate(195.592247, 263.565539)"><g><path d="M 4.984375 -1.734375 C 5.035156 -1.285156 5.09375 -0.925781 5.15625 -0.65625 C 5.21875 -0.394531 5.304688 -0.175781 5.421875 0 L 4.765625 0 C 4.679688 -0.207031 4.613281 -0.429688 4.5625 -0.671875 C 4.507812 -0.910156 4.457031 -1.238281 4.40625 -1.65625 C 4.363281 -2 4.265625 -2.289062 4.109375 -2.53125 C 3.953125 -2.769531 3.695312 -2.898438 3.34375 -2.921875 C 3.257812 -2.929688 3.171875 -2.9375 3.078125 -2.9375 C 2.992188 -2.9375 2.914062 -2.9375 2.84375 -2.9375 L 1.515625 -2.9375 L 1.515625 0 L 0.921875 0 L 0.921875 -6.484375 L 2.84375 -6.484375 C 3 -6.484375 3.144531 -6.476562 3.28125 -6.46875 C 3.425781 -6.46875 3.570312 -6.457031 3.71875 -6.4375 C 4.195312 -6.375 4.582031 -6.207031 4.875 -5.9375 C 5.164062 -5.675781 5.3125 -5.285156 5.3125 -4.765625 C 5.3125 -4.335938 5.191406 -3.992188 4.953125 -3.734375 C 4.710938 -3.484375 4.425781 -3.3125 4.09375 -3.21875 C 4.363281 -3.101562 4.570312 -2.910156 4.71875 -2.640625 C 4.863281 -2.367188 4.953125 -2.066406 4.984375 -1.734375 Z M 1.515625 -3.421875 L 2.84375 -3.421875 C 2.988281 -3.421875 3.109375 -3.421875 3.203125 -3.421875 C 3.296875 -3.421875 3.394531 -3.425781 3.5 -3.4375 C 3.851562 -3.46875 4.140625 -3.59375 4.359375 -3.8125 C 4.578125 -4.03125 4.6875 -4.332031 4.6875 -4.71875 C 4.6875 -5.09375 4.585938 -5.378906 4.390625 -5.578125 C 4.203125 -5.773438 3.929688 -5.898438 3.578125 -5.953125 C 3.378906 -5.972656 3.132812 -5.984375 2.84375 -5.984375 L 1.515625 -5.984375 Z M 1.515625 -3.421875 "/></g></g></g><g fill="#2e2e2e" fill-opacity="1"><g transform="translate(204.830512, 263.565539)"><g><path d="M 4.34375 -2.375 L 1.75 -2.375 L 0.921875 0 L 0.296875 0 L 2.6875 -6.484375 L 3.46875 -6.484375 L 5.8125 0 L 5.1875 0 Z M 1.921875 -2.859375 L 4.171875 -2.859375 L 3.078125 -6.015625 Z M 1.921875 -2.859375 "/></g></g></g><g fill="#2e2e2e" fill-opacity="1"><g transform="translate(214.340998, 263.565539)"><g><path d="M 3.59375 -6.4375 C 4.082031 -6.375 4.476562 -6.191406 4.78125 -5.890625 C 5.082031 -5.597656 5.234375 -5.175781 5.234375 -4.625 C 5.234375 -4.257812 5.160156 -3.945312 5.015625 -3.6875 C 4.867188 -3.425781 4.671875 -3.21875 4.421875 -3.0625 C 4.179688 -2.914062 3.90625 -2.820312 3.59375 -2.78125 C 3.445312 -2.757812 3.304688 -2.742188 3.171875 -2.734375 C 3.035156 -2.734375 2.882812 -2.734375 2.71875 -2.734375 L 1.515625 -2.734375 L 1.515625 0 L 0.921875 0 L 0.921875 -6.484375 L 2.71875 -6.484375 C 2.882812 -6.484375 3.035156 -6.476562 3.171875 -6.46875 C 3.304688 -6.46875 3.445312 -6.457031 3.59375 -6.4375 Z M 3.546875 -3.28125 C 3.835938 -3.332031 4.085938 -3.460938 4.296875 -3.671875 C 4.503906 -3.878906 4.609375 -4.195312 4.609375 -4.625 C 4.609375 -5.039062 4.503906 -5.351562 4.296875 -5.5625 C 4.085938 -5.769531 3.835938 -5.894531 3.546875 -5.9375 C 3.441406 -5.957031 3.320312 -5.96875 3.1875 -5.96875 C 3.0625 -5.976562 2.921875 -5.984375 2.765625 -5.984375 L 1.515625 -5.984375 L 1.515625 -3.234375 L 2.765625 -3.234375 C 2.921875 -3.234375 3.0625 -3.238281 3.1875 -3.25 C 3.320312 -3.257812 3.441406 -3.269531 3.546875 -3.28125 Z M 3.546875 -3.28125 "/></g></g></g><g fill="#2e2e2e" fill-opacity="1"><g transform="translate(223.27889, 263.565539)"><g><path d="M 5.890625 -6.484375 L 5.890625 0 L 5.3125 0 L 5.3125 -2.9375 L 1.515625 -2.9375 L 1.515625 0 L 0.921875 0 L 0.921875 -6.484375 L 1.515625 -6.484375 L 1.515625 -3.421875 L 5.3125 -3.421875 L 5.3125 -6.484375 Z M 5.890625 -6.484375 "/></g></g></g><g fill="#2e2e2e" fill-opacity="1"><g transform="translate(233.465219, 263.565539)"><g><path d="M 3.078125 -2.59375 L 3.078125 0 L 2.484375 0 L 2.484375 -2.578125 L 0.203125 -6.484375 L 0.859375 -6.484375 L 2.8125 -3.15625 L 4.703125 -6.484375 L 5.375 -6.484375 Z M 3.078125 -2.59375 "/></g></g></g><g clip-path="url(#adaa5b3aa2)"><g clip-path="url(#8379ad7617)"><path stroke-linecap="butt" transform="matrix(0.75, 0, 0, 0.75, 86.364534, 157.268618)" fill="none" stroke-linejoin="miter" d="M 24.685831 0.0012181 C 11.050414 0.0012181 -0.00167037 11.053302 -0.00167037 24.68872 C -0.00167037 38.324137 11.050414 49.376221 24.685831 49.376221 C 38.321249 49.376221 49.373333 38.324137 49.373333 24.68872 C 49.373333 11.053302 38.321249 0.0012181 24.685831 0.0012181 Z M 24.685831 0.0012181 " stroke="#2e2e2e" stroke-width="2" stroke-opacity="1" stroke-miterlimit="4"/></g></g><g fill="#2e2e2e" fill-opacity="1"><g transform="translate(100.052033, 173.768617)"><g><path d="M 4.578125 -0.421875 L 4.578125 0 L 0.828125 0 L 0.828125 -5.796875 L 4.5 -5.796875 L 4.5 -5.359375 L 1.34375 -5.359375 L 1.34375 -3.109375 L 4.28125 -3.109375 L 4.28125 -2.671875 L 1.34375 -2.671875 L 1.34375 -0.421875 Z M 4.578125 -0.421875 "/></g></g></g><g fill="#2e2e2e" fill-opacity="1"><g transform="translate(104.878258, 173.768617)"><g><path d="M 2.546875 -5.90625 C 2.929688 -5.90625 3.253906 -5.832031 3.515625 -5.6875 C 3.785156 -5.539062 3.992188 -5.335938 4.140625 -5.078125 C 4.285156 -4.828125 4.375 -4.546875 4.40625 -4.234375 L 3.875 -4.234375 C 3.820312 -4.628906 3.675781 -4.9375 3.4375 -5.15625 C 3.195312 -5.375 2.882812 -5.484375 2.5 -5.484375 C 2.28125 -5.484375 2.070312 -5.445312 1.875 -5.375 C 1.675781 -5.300781 1.515625 -5.1875 1.390625 -5.03125 C 1.273438 -4.875 1.21875 -4.679688 1.21875 -4.453125 C 1.21875 -4.222656 1.265625 -4.03125 1.359375 -3.875 C 1.460938 -3.726562 1.613281 -3.601562 1.8125 -3.5 C 2.019531 -3.40625 2.289062 -3.316406 2.625 -3.234375 C 3.25 -3.078125 3.710938 -2.867188 4.015625 -2.609375 C 4.328125 -2.347656 4.484375 -1.976562 4.484375 -1.5 C 4.484375 -1.175781 4.398438 -0.894531 4.234375 -0.65625 C 4.066406 -0.414062 3.832031 -0.222656 3.53125 -0.078125 C 3.238281 0.0546875 2.910156 0.125 2.546875 0.125 C 1.953125 0.125 1.457031 -0.0195312 1.0625 -0.3125 C 0.675781 -0.601562 0.453125 -1.03125 0.390625 -1.59375 L 0.953125 -1.59375 C 1.023438 -1.175781 1.207031 -0.851562 1.5 -0.625 C 1.789062 -0.40625 2.144531 -0.296875 2.5625 -0.296875 C 2.8125 -0.296875 3.039062 -0.34375 3.25 -0.4375 C 3.457031 -0.53125 3.625 -0.660156 3.75 -0.828125 C 3.875 -0.992188 3.9375 -1.1875 3.9375 -1.40625 C 3.9375 -1.78125 3.816406 -2.0625 3.578125 -2.25 C 3.347656 -2.445312 2.960938 -2.613281 2.421875 -2.75 C 2.054688 -2.84375 1.738281 -2.953125 1.46875 -3.078125 C 1.207031 -3.203125 1.003906 -3.367188 0.859375 -3.578125 C 0.722656 -3.785156 0.65625 -4.039062 0.65625 -4.34375 C 0.65625 -4.65625 0.738281 -4.925781 0.90625 -5.15625 C 1.082031 -5.394531 1.3125 -5.578125 1.59375 -5.703125 C 1.882812 -5.835938 2.203125 -5.90625 2.546875 -5.90625 Z M 2.546875 -5.90625 "/></g></g></g><g fill="#2e2e2e" fill-opacity="1"><g transform="translate(99.430939, 183.518616)"><g><path d="M 5.046875 -5.359375 L 2.921875 -5.359375 L 2.921875 0 L 2.40625 0 L 2.40625 -5.359375 L 0.28125 -5.359375 L 0.28125 -5.796875 L 5.046875 -5.796875 Z M 5.046875 -5.359375 "/></g></g></g><g fill="#2e2e2e" fill-opacity="1"><g transform="translate(104.45826, 183.518616)"><g><path d="M 3.25 -5.765625 C 3.539062 -5.734375 3.820312 -5.65625 4.09375 -5.53125 C 4.363281 -5.40625 4.609375 -5.226562 4.828125 -5 C 5.046875 -4.769531 5.21875 -4.484375 5.34375 -4.140625 C 5.46875 -3.804688 5.53125 -3.40625 5.53125 -2.9375 C 5.53125 -2.476562 5.46875 -2.078125 5.34375 -1.734375 C 5.21875 -1.390625 5.046875 -1.097656 4.828125 -0.859375 C 4.609375 -0.617188 4.363281 -0.425781 4.09375 -0.28125 C 3.820312 -0.144531 3.546875 -0.0625 3.265625 -0.03125 C 3.117188 -0.0195312 2.992188 -0.0078125 2.890625 0 C 2.796875 0 2.675781 0 2.53125 0 L 0.828125 0 L 0.828125 -5.796875 L 2.546875 -5.796875 C 2.703125 -5.796875 2.820312 -5.789062 2.90625 -5.78125 C 3 -5.78125 3.113281 -5.773438 3.25 -5.765625 Z M 3.21875 -0.46875 C 3.53125 -0.519531 3.816406 -0.644531 4.078125 -0.84375 C 4.347656 -1.039062 4.5625 -1.316406 4.71875 -1.671875 C 4.882812 -2.023438 4.96875 -2.445312 4.96875 -2.9375 C 4.96875 -3.4375 4.882812 -3.851562 4.71875 -4.1875 C 4.5625 -4.53125 4.347656 -4.796875 4.078125 -4.984375 C 3.804688 -5.171875 3.515625 -5.285156 3.203125 -5.328125 C 3.109375 -5.335938 3.007812 -5.34375 2.90625 -5.34375 C 2.800781 -5.351562 2.675781 -5.359375 2.53125 -5.359375 L 1.34375 -5.359375 L 1.34375 -0.4375 L 2.5 -0.4375 C 2.644531 -0.4375 2.769531 -0.4375 2.875 -0.4375 C 2.988281 -0.4375 3.101562 -0.445312 3.21875 -0.46875 Z M 3.21875 -0.46875 "/></g></g></g><g fill="#2e2e2e" fill-opacity="1"><g transform="translate(92.532212, 233.675989)"><g><path d="M 8.671875 0.390625 C 7.179688 0.390625 5.875 0.125 4.75 -0.40625 C 3.625 -0.945312 2.738281 -1.71875 2.09375 -2.71875 C 1.457031 -3.71875 1.140625 -4.914062 1.140625 -6.3125 L 5.390625 -6.3125 C 5.390625 -5.363281 5.71875 -4.660156 6.375 -4.203125 C 7.03125 -3.753906 7.785156 -3.53125 8.640625 -3.53125 C 9.179688 -3.53125 9.6875 -3.617188 10.15625 -3.796875 C 10.625 -3.972656 11.007812 -4.226562 11.3125 -4.5625 C 11.625 -4.90625 11.78125 -5.320312 11.78125 -5.8125 C 11.78125 -6.3125 11.601562 -6.703125 11.25 -6.984375 C 10.894531 -7.273438 10.421875 -7.507812 9.828125 -7.6875 C 9.242188 -7.875 8.597656 -8.050781 7.890625 -8.21875 C 7.171875 -8.382812 6.429688 -8.585938 5.671875 -8.828125 C 4.910156 -9.078125 4.203125 -9.398438 3.546875 -9.796875 C 2.898438 -10.191406 2.382812 -10.726562 2 -11.40625 C 1.613281 -12.082031 1.421875 -12.9375 1.421875 -13.96875 C 1.421875 -15.84375 2.050781 -17.285156 3.3125 -18.296875 C 4.582031 -19.304688 6.300781 -19.8125 8.46875 -19.8125 C 10.695312 -19.8125 12.421875 -19.25 13.640625 -18.125 C 14.859375 -17.007812 15.46875 -15.488281 15.46875 -13.5625 L 11.3125 -13.5625 C 11.3125 -14.394531 11.015625 -15.007812 10.421875 -15.40625 C 9.828125 -15.800781 9.140625 -16 8.359375 -16 C 7.671875 -16 7.039062 -15.847656 6.46875 -15.546875 C 5.894531 -15.253906 5.609375 -14.796875 5.609375 -14.171875 C 5.609375 -13.703125 5.78125 -13.332031 6.125 -13.0625 C 6.46875 -12.800781 6.921875 -12.582031 7.484375 -12.40625 C 8.046875 -12.226562 8.671875 -12.054688 9.359375 -11.890625 C 10.097656 -11.703125 10.859375 -11.484375 11.640625 -11.234375 C 12.421875 -10.984375 13.144531 -10.644531 13.8125 -10.21875 C 14.476562 -9.789062 15.019531 -9.222656 15.4375 -8.515625 C 15.851562 -7.816406 16.0625 -6.929688 16.0625 -5.859375 C 16.0625 -4.453125 15.722656 -3.285156 15.046875 -2.359375 C 14.367188 -1.429688 13.472656 -0.738281 12.359375 -0.28125 C 11.253906 0.164062 10.023438 0.390625 8.671875 0.390625 Z M 8.671875 0.390625 "/></g></g></g><g fill="#2e2e2e" fill-opacity="1"><g transform="translate(109.72517, 233.675989)"><g><path d="M 9.28125 -3.609375 L 11.109375 -3.609375 L 11.109375 0 L 8.25 0 C 6.601562 0 5.300781 -0.472656 4.34375 -1.421875 C 3.394531 -2.378906 2.921875 -3.691406 2.921875 -5.359375 L 2.921875 -11.75 L 0.1875 -11.75 L 0.1875 -12.609375 L 6.140625 -18.921875 L 6.890625 -18.921875 L 6.890625 -15 L 11.03125 -15 L 11.03125 -11.75 L 6.96875 -11.75 L 6.96875 -5.890625 C 6.96875 -5.171875 7.164062 -4.609375 7.5625 -4.203125 C 7.96875 -3.804688 8.539062 -3.609375 9.28125 -3.609375 Z M 9.28125 -3.609375 "/></g></g></g><g fill="#2e2e2e" fill-opacity="1"><g transform="translate(121.668578, 233.675989)"><g><path d="M 8.8125 0.421875 C 7.394531 0.421875 6.15625 0.140625 5.09375 -0.421875 C 4.03125 -0.992188 3.207031 -1.785156 2.625 -2.796875 C 2.039062 -3.804688 1.75 -4.984375 1.75 -6.328125 L 1.75 -15 L 5.8125 -15 L 5.8125 -6.8125 C 5.8125 -5.726562 6.070312 -4.882812 6.59375 -4.28125 C 7.125 -3.6875 7.863281 -3.390625 8.8125 -3.390625 C 9.75 -3.390625 10.476562 -3.691406 11 -4.296875 C 11.519531 -4.910156 11.78125 -5.75 11.78125 -6.8125 L 11.78125 -15 L 15.828125 -15 L 15.828125 -6.328125 C 15.828125 -4.984375 15.535156 -3.804688 14.953125 -2.796875 C 14.367188 -1.785156 13.550781 -0.992188 12.5 -0.421875 C 11.445312 0.140625 10.21875 0.421875 8.8125 0.421875 Z M 8.8125 0.421875 "/></g></g></g><g fill="#2e2e2e" fill-opacity="1"><g transform="translate(139.250393, 233.675989)"><g><path d="M 12.96875 -20.421875 L 17.03125 -20.421875 L 17.03125 0 L 14.03125 0 L 13.5625 -1.25 C 12.925781 -0.707031 12.207031 -0.289062 11.40625 0 C 10.613281 0.289062 9.765625 0.4375 8.859375 0.4375 C 7.335938 0.4375 5.976562 0.09375 4.78125 -0.59375 C 3.59375 -1.289062 2.660156 -2.234375 1.984375 -3.421875 C 1.304688 -4.617188 0.96875 -5.976562 0.96875 -7.5 C 0.96875 -9.019531 1.304688 -10.375 1.984375 -11.5625 C 2.660156 -12.757812 3.59375 -13.703125 4.78125 -14.390625 C 5.976562 -15.078125 7.335938 -15.421875 8.859375 -15.421875 C 9.617188 -15.421875 10.34375 -15.3125 11.03125 -15.09375 C 11.726562 -14.882812 12.375 -14.585938 12.96875 -14.203125 Z M 9.171875 -3.390625 C 9.960938 -3.390625 10.664062 -3.566406 11.28125 -3.921875 C 11.894531 -4.285156 12.378906 -4.773438 12.734375 -5.390625 C 13.097656 -6.015625 13.28125 -6.71875 13.28125 -7.5 C 13.28125 -8.28125 13.097656 -8.976562 12.734375 -9.59375 C 12.378906 -10.21875 11.894531 -10.707031 11.28125 -11.0625 C 10.664062 -11.425781 9.960938 -11.609375 9.171875 -11.609375 C 8.390625 -11.609375 7.691406 -11.425781 7.078125 -11.0625 C 6.472656 -10.707031 5.988281 -10.21875 5.625 -9.59375 C 5.257812 -8.976562 5.078125 -8.28125 5.078125 -7.5 C 5.078125 -6.71875 5.257812 -6.015625 5.625 -5.390625 C 5.988281 -4.773438 6.472656 -4.285156 7.078125 -3.921875 C 7.691406 -3.566406 8.390625 -3.390625 9.171875 -3.390625 Z M 9.171875 -3.390625 "/></g></g></g><g fill="#2e2e2e" fill-opacity="1"><g transform="translate(158.220975, 233.675989)"><g><path d="M 1.9375 -17 L 1.9375 -20.78125 L 6 -20.78125 L 6 -17 Z M 1.9375 0 L 1.9375 -15 L 6 -15 L 6 0 Z M 1.9375 0 "/></g></g></g><g fill="#2e2e2e" fill-opacity="1"><g transform="translate(166.164739, 233.675989)"><g><path d="M 9.078125 0.421875 C 7.523438 0.421875 6.132812 0.0703125 4.90625 -0.625 C 3.6875 -1.320312 2.722656 -2.265625 2.015625 -3.453125 C 1.316406 -4.648438 0.96875 -6 0.96875 -7.5 C 0.96875 -9.019531 1.316406 -10.375 2.015625 -11.5625 C 2.722656 -12.757812 3.6875 -13.703125 4.90625 -14.390625 C 6.132812 -15.078125 7.523438 -15.421875 9.078125 -15.421875 C 10.617188 -15.421875 12 -15.078125 13.21875 -14.390625 C 14.445312 -13.703125 15.410156 -12.757812 16.109375 -11.5625 C 16.816406 -10.375 17.171875 -9.019531 17.171875 -7.5 C 17.171875 -6 16.816406 -4.648438 16.109375 -3.453125 C 15.410156 -2.265625 14.445312 -1.320312 13.21875 -0.625 C 12 0.0703125 10.617188 0.421875 9.078125 0.421875 Z M 9.078125 -3.390625 C 10.242188 -3.390625 11.195312 -3.769531 11.9375 -4.53125 C 12.6875 -5.289062 13.0625 -6.28125 13.0625 -7.5 C 13.0625 -8.71875 12.6875 -9.707031 11.9375 -10.46875 C 11.195312 -11.226562 10.242188 -11.609375 9.078125 -11.609375 C 7.898438 -11.609375 6.9375 -11.226562 6.1875 -10.46875 C 5.445312 -9.707031 5.078125 -8.71875 5.078125 -7.5 C 5.078125 -6.28125 5.445312 -5.289062 6.1875 -4.53125 C 6.9375 -3.769531 7.898438 -3.390625 9.078125 -3.390625 Z M 9.078125 -3.390625 "/></g></g></g><g fill="#2e2e2e" fill-opacity="1"><g transform="translate(190.687874, 233.675989)"><g><path d="M 5.078125 -2.328125 L 13.96875 -2.328125 L 13.96875 0 L 2.671875 0 L 2.671875 -19.453125 L 13.671875 -19.453125 L 13.671875 -17.140625 L 5.078125 -17.140625 L 5.078125 -11.109375 L 12.953125 -11.109375 L 12.953125 -8.859375 L 5.078125 -8.859375 Z M 5.078125 -2.328125 "/></g></g></g><g fill="#2e2e2e" fill-opacity="1"><g transform="translate(206.047655, 233.675989)"><g><path d="M 12.96875 -15 L 15.390625 -15 L 9.0625 0 L 6.921875 0 L 0.421875 -15 L 2.890625 -15 L 7.96875 -3.0625 Z M 12.96875 -15 "/></g></g></g><g fill="#2e2e2e" fill-opacity="1"><g transform="translate(221.935168, 233.675989)"><g><path d="M 9.140625 0.328125 C 7.617188 0.328125 6.257812 -0.0078125 5.0625 -0.6875 C 3.875 -1.375 2.929688 -2.304688 2.234375 -3.484375 C 1.535156 -4.660156 1.1875 -6 1.1875 -7.5 C 1.1875 -9 1.535156 -10.34375 2.234375 -11.53125 C 2.929688 -12.71875 3.875 -13.644531 5.0625 -14.3125 C 6.257812 -14.988281 7.617188 -15.328125 9.140625 -15.328125 C 10.660156 -15.328125 12.019531 -14.984375 13.21875 -14.296875 C 14.425781 -13.617188 15.375 -12.691406 16.0625 -11.515625 C 16.757812 -10.335938 17.109375 -9 17.109375 -7.5 C 17.109375 -6 16.757812 -4.660156 16.0625 -3.484375 C 15.375 -2.304688 14.425781 -1.375 13.21875 -0.6875 C 12.019531 -0.0078125 10.660156 0.328125 9.140625 0.328125 Z M 9.140625 -1.9375 C 10.210938 -1.9375 11.164062 -2.175781 12 -2.65625 C 12.832031 -3.144531 13.488281 -3.804688 13.96875 -4.640625 C 14.457031 -5.472656 14.703125 -6.425781 14.703125 -7.5 C 14.703125 -8.570312 14.457031 -9.523438 13.96875 -10.359375 C 13.488281 -11.191406 12.832031 -11.847656 12 -12.328125 C 11.164062 -12.816406 10.210938 -13.0625 9.140625 -13.0625 C 8.066406 -13.0625 7.113281 -12.816406 6.28125 -12.328125 C 5.445312 -11.847656 4.789062 -11.191406 4.3125 -10.359375 C 3.84375 -9.523438 3.609375 -8.570312 3.609375 -7.5 C 3.609375 -6.425781 3.84375 -5.472656 4.3125 -4.640625 C 4.789062 -3.804688 5.453125 -3.144531 6.296875 -2.65625 C 7.140625 -2.175781 8.085938 -1.9375 9.140625 -1.9375 Z M 9.140625 -1.9375 "/></g></g></g><g fill="#2e2e2e" fill-opacity="1"><g transform="translate(240.239143, 233.675989)"><g><path d="M 12.03125 0 L 6.890625 -6.71875 L 4.75 -6.71875 L 4.75 0 L 2.390625 0 L 2.390625 -20.359375 L 4.75 -20.359375 L 4.75 -8.921875 L 6.921875 -8.921875 L 11.5625 -15 L 14.421875 -15 L 8.953125 -7.8125 L 14.96875 0 Z M 12.03125 0 "/></g></g></g><g fill="#2e2e2e" fill-opacity="1"><g transform="translate(255.348956, 233.675989)"><g><path d="M 16.421875 -7.453125 C 16.421875 -7.296875 16.410156 -7.148438 16.390625 -7.015625 C 16.367188 -6.878906 16.359375 -6.734375 16.359375 -6.578125 L 3.5625 -6.578125 C 3.738281 -5.191406 4.304688 -4.078125 5.265625 -3.234375 C 6.234375 -2.390625 7.421875 -1.96875 8.828125 -1.96875 C 9.867188 -1.96875 10.796875 -2.195312 11.609375 -2.65625 C 12.421875 -3.125 13.0625 -3.765625 13.53125 -4.578125 L 16 -4.578125 C 15.375 -3.023438 14.429688 -1.816406 13.171875 -0.953125 C 11.910156 -0.0976562 10.460938 0.328125 8.828125 0.328125 C 7.390625 0.328125 6.085938 -0.0078125 4.921875 -0.6875 C 3.765625 -1.375 2.851562 -2.3125 2.1875 -3.5 C 1.519531 -4.6875 1.1875 -6.019531 1.1875 -7.5 C 1.1875 -8.976562 1.519531 -10.3125 2.1875 -11.5 C 2.851562 -12.6875 3.765625 -13.617188 4.921875 -14.296875 C 6.085938 -14.984375 7.390625 -15.328125 8.828125 -15.328125 C 10.347656 -15.328125 11.675781 -14.972656 12.8125 -14.265625 C 13.957031 -13.566406 14.84375 -12.617188 15.46875 -11.421875 C 16.101562 -10.234375 16.421875 -8.910156 16.421875 -7.453125 Z M 8.828125 -13.078125 C 7.484375 -13.078125 6.34375 -12.679688 5.40625 -11.890625 C 4.46875 -11.109375 3.867188 -10.070312 3.609375 -8.78125 L 14.03125 -8.78125 C 13.789062 -10.113281 13.195312 -11.160156 12.25 -11.921875 C 11.300781 -12.691406 10.160156 -13.078125 8.828125 -13.078125 Z M 8.828125 -13.078125 "/></g></g></g><g clip-path="url(#cd9f32777c)"><g clip-path="url(#2407c97818)"><path stroke-linecap="butt" transform="matrix(0.75, 0, 0, 0.75, 251.593817, 157.268618)" fill="none" stroke-linejoin="miter" d="M 24.687413 0.0012181 C 11.051995 0.0012181 -0.0000890382 11.053302 -0.0000890382 24.68872 C -0.0000890382 38.324137 11.051995 49.376221 24.687413 49.376221 C 38.32283 49.376221 49.374914 38.324137 49.374914 24.68872 C 49.374914 11.053302 38.32283 0.0012181 24.687413 0.0012181 Z M 24.687413 0.0012181 " stroke="#2e2e2e" stroke-width="2" stroke-opacity="1" stroke-miterlimit="4"/></g></g><g fill="#2e2e2e" fill-opacity="1"><g transform="translate(265.398503, 173.768617)"><g><path d="M 1.203125 -0.4375 L 4.25 -0.4375 L 4.25 0 L 0.4375 0 L 0.4375 -0.3125 L 2.5 -2.375 C 2.78125 -2.65625 3.003906 -2.898438 3.171875 -3.109375 C 3.347656 -3.316406 3.472656 -3.507812 3.546875 -3.6875 C 3.628906 -3.875 3.671875 -4.066406 3.671875 -4.265625 C 3.671875 -4.597656 3.570312 -4.882812 3.375 -5.125 C 3.175781 -5.363281 2.878906 -5.484375 2.484375 -5.484375 C 2.097656 -5.484375 1.789062 -5.359375 1.5625 -5.109375 C 1.332031 -4.867188 1.195312 -4.535156 1.15625 -4.109375 L 1.140625 -4.015625 L 0.625 -4.015625 L 0.625 -4.109375 C 0.6875 -4.679688 0.882812 -5.125 1.21875 -5.4375 C 1.5625 -5.75 2.003906 -5.90625 2.546875 -5.90625 C 2.929688 -5.90625 3.25 -5.832031 3.5 -5.6875 C 3.75 -5.539062 3.9375 -5.347656 4.0625 -5.109375 C 4.1875 -4.867188 4.25 -4.609375 4.25 -4.328125 C 4.25 -4.066406 4.195312 -3.820312 4.09375 -3.59375 C 3.988281 -3.363281 3.832031 -3.117188 3.625 -2.859375 C 3.414062 -2.609375 3.144531 -2.328125 2.8125 -2.015625 Z M 1.203125 -0.4375 "/></g></g></g><g fill="#2e2e2e" fill-opacity="1"><g transform="translate(270.099049, 173.768617)"><g><path d="M 2.359375 -5.90625 C 2.859375 -5.90625 3.253906 -5.773438 3.546875 -5.515625 C 3.847656 -5.253906 4.0625 -4.894531 4.1875 -4.4375 C 4.3125 -3.976562 4.375 -3.460938 4.375 -2.890625 C 4.375 -2.316406 4.3125 -1.800781 4.1875 -1.34375 C 4.0625 -0.894531 3.847656 -0.535156 3.546875 -0.265625 C 3.253906 -0.00390625 2.859375 0.125 2.359375 0.125 C 1.859375 0.125 1.457031 -0.00390625 1.15625 -0.265625 C 0.863281 -0.535156 0.648438 -0.894531 0.515625 -1.34375 C 0.390625 -1.800781 0.328125 -2.316406 0.328125 -2.890625 C 0.328125 -3.472656 0.390625 -3.988281 0.515625 -4.4375 C 0.648438 -4.894531 0.863281 -5.253906 1.15625 -5.515625 C 1.457031 -5.773438 1.859375 -5.90625 2.359375 -5.90625 Z M 2.359375 -0.296875 C 2.710938 -0.296875 2.992188 -0.40625 3.203125 -0.625 C 3.421875 -0.84375 3.570312 -1.144531 3.65625 -1.53125 C 3.75 -1.925781 3.796875 -2.378906 3.796875 -2.890625 C 3.796875 -3.410156 3.75 -3.863281 3.65625 -4.25 C 3.570312 -4.632812 3.421875 -4.9375 3.203125 -5.15625 C 2.992188 -5.375 2.710938 -5.484375 2.359375 -5.484375 C 2.003906 -5.484375 1.71875 -5.375 1.5 -5.15625 C 1.289062 -4.945312 1.140625 -4.644531 1.046875 -4.25 C 0.953125 -3.863281 0.90625 -3.410156 0.90625 -2.890625 C 0.90625 -2.378906 0.953125 -1.925781 1.046875 -1.53125 C 1.140625 -1.144531 1.289062 -0.84375 1.5 -0.625 C 1.71875 -0.40625 2.003906 -0.296875 2.359375 -0.296875 Z M 2.359375 -0.296875 "/></g></g></g><g fill="#2e2e2e" fill-opacity="1"><g transform="translate(265.398503, 183.518616)"><g><path d="M 1.203125 -0.4375 L 4.25 -0.4375 L 4.25 0 L 0.4375 0 L 0.4375 -0.3125 L 2.5 -2.375 C 2.78125 -2.65625 3.003906 -2.898438 3.171875 -3.109375 C 3.347656 -3.316406 3.472656 -3.507812 3.546875 -3.6875 C 3.628906 -3.875 3.671875 -4.066406 3.671875 -4.265625 C 3.671875 -4.597656 3.570312 -4.882812 3.375 -5.125 C 3.175781 -5.363281 2.878906 -5.484375 2.484375 -5.484375 C 2.097656 -5.484375 1.789062 -5.359375 1.5625 -5.109375 C 1.332031 -4.867188 1.195312 -4.535156 1.15625 -4.109375 L 1.140625 -4.015625 L 0.625 -4.015625 L 0.625 -4.109375 C 0.6875 -4.679688 0.882812 -5.125 1.21875 -5.4375 C 1.5625 -5.75 2.003906 -5.90625 2.546875 -5.90625 C 2.929688 -5.90625 3.25 -5.832031 3.5 -5.6875 C 3.75 -5.539062 3.9375 -5.347656 4.0625 -5.109375 C 4.1875 -4.867188 4.25 -4.609375 4.25 -4.328125 C 4.25 -4.066406 4.195312 -3.820312 4.09375 -3.59375 C 3.988281 -3.363281 3.832031 -3.117188 3.625 -2.859375 C 3.414062 -2.609375 3.144531 -2.328125 2.8125 -2.015625 Z M 1.203125 -0.4375 "/></g></g></g><g fill="#2e2e2e" fill-opacity="1"><g transform="translate(270.099049, 183.518616)"><g><path d="M 2.359375 -5.90625 C 2.859375 -5.90625 3.253906 -5.773438 3.546875 -5.515625 C 3.847656 -5.253906 4.0625 -4.894531 4.1875 -4.4375 C 4.3125 -3.976562 4.375 -3.460938 4.375 -2.890625 C 4.375 -2.316406 4.3125 -1.800781 4.1875 -1.34375 C 4.0625 -0.894531 3.847656 -0.535156 3.546875 -0.265625 C 3.253906 -0.00390625 2.859375 0.125 2.359375 0.125 C 1.859375 0.125 1.457031 -0.00390625 1.15625 -0.265625 C 0.863281 -0.535156 0.648438 -0.894531 0.515625 -1.34375 C 0.390625 -1.800781 0.328125 -2.316406 0.328125 -2.890625 C 0.328125 -3.472656 0.390625 -3.988281 0.515625 -4.4375 C 0.648438 -4.894531 0.863281 -5.253906 1.15625 -5.515625 C 1.457031 -5.773438 1.859375 -5.90625 2.359375 -5.90625 Z M 2.359375 -0.296875 C 2.710938 -0.296875 2.992188 -0.40625 3.203125 -0.625 C 3.421875 -0.84375 3.570312 -1.144531 3.65625 -1.53125 C 3.75 -1.925781 3.796875 -2.378906 3.796875 -2.890625 C 3.796875 -3.410156 3.75 -3.863281 3.65625 -4.25 C 3.570312 -4.632812 3.421875 -4.9375 3.203125 -5.15625 C 2.992188 -5.375 2.710938 -5.484375 2.359375 -5.484375 C 2.003906 -5.484375 1.71875 -5.375 1.5 -5.15625 C 1.289062 -4.945312 1.140625 -4.644531 1.046875 -4.25 C 0.953125 -3.863281 0.90625 -3.410156 0.90625 -2.890625 C 0.90625 -2.378906 0.953125 -1.925781 1.046875 -1.53125 C 1.140625 -1.144531 1.289062 -0.84375 1.5 -0.625 C 1.71875 -0.40625 2.003906 -0.296875 2.359375 -0.296875 Z M 2.359375 -0.296875 "/></g></g></g></svg>